<svg height="25px" width="25px" version="1.1" id="Layer_1" xmlns="http://www.w3.org/2000/svg" xmlns:xlink="http://www.w3.org/1999/xlink" viewBox="0 0 512 512" xml:space="preserve" fill="#000000"><g id="SVGRepo_bgCarrier" stroke-width="0"></g><g id="SVGRepo_tracerCarrier" stroke-linecap="round" stroke-linejoin="round"></g><g id="SVGRepo_iconCarrier"> <polygon style="fill:#FFFFFF;" points="296.91,10.199 52.989,10.199 52.989,463.262 378.217,463.262 378.217,91.506 "></polygon> <circle style="fill:#77BD00;" cx="378.217" cy="420.962" r="80.839"></circle> <path d="M442.589,356.591c-15.155-15.154-34.369-23.815-54.173-26.029V91.506c0-2.705-1.075-5.299-2.987-7.212L304.122,2.987 C302.208,1.075,299.615,0,296.91,0H52.989c-5.632,0-10.199,4.566-10.199,10.199v453.063c0,5.633,4.567,10.199,10.199,10.199h250.875 c2.943,4.165,6.255,8.148,9.981,11.874C331.038,502.53,353.9,512,378.217,512s47.178-9.47,64.372-26.664 C478.084,449.841,478.084,392.086,442.589,356.591z M307.109,34.823l46.485,46.484h-46.485V34.823z M63.188,453.063V20.398h223.523 v71.108c0,5.633,4.567,10.199,10.199,10.199h71.108v228.856c-19.805,2.214-39.018,10.875-54.173,26.029 c-26.04,26.04-32.95,64.05-20.785,96.472H63.188z M428.164,470.911L428.164,470.911c-13.342,13.343-31.08,20.69-49.948,20.69 s-36.607-7.348-49.949-20.69c-27.542-27.541-27.542-72.355,0-99.896c13.771-13.771,31.859-20.656,49.949-20.656 s36.178,6.885,49.949,20.656C455.706,398.556,455.706,443.371,428.164,470.911z"></path> <path d="M406.921,391.553l-42.312,42.026l-16.444-16.444c-3.984-3.983-10.44-3.983-14.425,0c-3.983,3.983-3.983,10.441,0,14.424 l23.632,23.631c1.992,1.991,4.602,2.987,7.212,2.987c2.599,0,5.199-0.987,7.187-2.963l49.525-49.188 c3.997-3.97,4.018-10.428,0.049-14.424C417.377,387.604,410.917,387.584,406.921,391.553z"></path> <path d="M89.774,266.199c-5.632,0-10.199,4.566-10.199,10.199v149.928c0,5.633,4.567,10.199,10.199,10.199 s10.199-4.566,10.199-10.199V276.398C99.973,270.765,95.407,266.199,89.774,266.199z"></path> <path d="M89.774,218.263c-5.632,0-10.199,4.566-10.199,10.199v10.199c0,5.633,4.567,10.199,10.199,10.199 s10.199-4.566,10.199-10.199v-10.199C99.973,222.829,95.407,218.263,89.774,218.263z"></path> </g></svg>