<svg version="1.1" id="Layer_1" xmlns="http://www.w3.org/2000/svg" xmlns:xlink="http://www.w3.org/1999/xlink" viewBox="0 0 512 512" xml:space="preserve" width="20px" height="20px" fill="#000000"><g id="SVGRepo_bgCarrier" stroke-width="0"></g><g id="SVGRepo_tracerCarrier" stroke-linecap="round" stroke-linejoin="round"></g><g id="SVGRepo_iconCarrier"> <polygon style="fill:#00B4D7;" points="379.715,253.188 458.443,253.188 458.443,427.514 194.143,427.514 194.143,494.995 53.557,388.15 194.143,281.305 194.143,348.786 379.715,348.786 "></polygon> <polygon style="fill:#0093C4;" points="419.079,388.15 53.557,388.15 194.143,494.995 194.143,427.514 458.443,427.514 458.443,253.188 419.079,253.188 "></polygon> <path d="M202.578,512L39.617,388.15L202.578,264.3v76.051H371.28v-95.598h95.598v191.196h-264.3V512z M67.498,388.15l118.21,89.84 v-58.911h264.3V261.623H388.15v95.598H185.707v-58.911L67.498,388.15z"></path> <rect x="103.065" y="399.415" transform="matrix(-0.7894 -0.6139 0.6139 -0.7894 -8.5864 812.7542)" style="fill:#FFFFFF;" width="64.119" height="16.87"></rect> <polygon style="fill:#00B4D7;" points="132.285,258.812 53.557,258.812 53.557,84.486 317.857,84.486 317.857,17.005 458.443,123.85 317.857,230.695 317.857,163.214 132.285,163.214 "></polygon> <polygon style="fill:#0093C4;" points="92.921,123.85 458.443,123.85 317.857,17.005 317.857,84.486 53.557,84.486 53.557,258.812 92.921,258.812 "></polygon> <path d="M140.72,267.247H45.122V76.051h264.3V0l162.961,123.85L309.422,247.7v-76.051H140.72 C140.72,171.649,140.72,267.247,140.72,267.247z M61.992,250.377h61.857v-95.598h202.443v58.911l118.21-89.84l-118.21-89.84v58.911 h-264.3C61.992,92.921,61.992,250.377,61.992,250.377z"></path> <rect x="344.876" y="95.73" transform="matrix(-0.7894 -0.6139 0.6139 -0.7894 610.5375 417.7895)" style="fill:#FFFFFF;" width="64.119" height="16.87"></rect> </g></svg>